<?xml version="1.0" standalone="no"?>
<!DOCTYPE svg PUBLIC "-//W3C//DTD SVG 20010904//EN"
 "http://www.w3.org/TR/2001/REC-SVG-20010904/DTD/svg10.dtd">
<svg version="1.0" xmlns="http://www.w3.org/2000/svg"
 width="5473.000000pt" height="3649.000000pt" viewBox="0 0 5473.000000 3649.000000"
 preserveAspectRatio="xMidYMid meet">

<g transform="translate(0.000000,3649.000000) scale(0.100000,-0.100000)"
fill="#000000" stroke="none">
<path d="M21625 23201 c-71 -41 -118 -96 -244 -285 -143 -216 -183 -267 -281
-359 -163 -154 -379 -216 -705 -204 -289 11 -476 55 -1240 292 -627 194 -963
255 -1335 242 -456 -17 -894 -125 -1249 -307 -399 -205 -679 -519 -773 -868
-30 -110 -29 -305 1 -417 98 -365 433 -665 921 -825 285 -94 549 -133 910
-133 338 0 613 33 920 109 417 103 686 267 793 483 39 79 42 89 45 189 l4 105
-58 -6 c-85 -8 -230 -57 -469 -159 -312 -134 -396 -165 -550 -203 -302 -74
-521 -100 -840 -100 -325 0 -518 27 -757 105 -216 71 -377 161 -507 285 -326
310 -271 679 144 959 294 198 725 316 1162 316 444 0 872 -82 1623 -310 740
-225 1039 -290 1274 -277 121 7 166 19 354 99 78 34 145 58 148 55 12 -12 -30
-166 -107 -397 -43 -129 -91 -289 -108 -356 -61 -243 -106 -586 -131 -994 -19
-317 -35 -405 -92 -487 -37 -55 -110 -106 -364 -256 -352 -208 -557 -342 -781
-511 -721 -543 -1179 -1158 -1315 -1766 -20 -90 -23 -131 -22 -285 0 -152 4
-193 22 -260 100 -369 396 -573 777 -534 801 81 1714 1096 2065 2294 46 159
72 311 100 580 23 231 53 400 82 466 37 88 82 112 238 129 58 6 195 22 304 36
110 13 213 24 230 24 l31 0 -5 -487 c-6 -583 3 -1137 25 -1398 57 -706 194
-1213 422 -1564 81 -125 160 -203 303 -296 125 -83 179 -128 163 -138 -5 -3
-317 -83 -693 -177 -377 -94 -815 -209 -975 -255 -1131 -326 -2438 -775 -2883
-991 -105 -51 -146 -77 -192 -122 -104 -102 -103 -179 6 -282 l56 -53 72 6
c155 13 333 74 786 267 636 271 1744 641 2755 920 2639 726 5626 1194 9450
1480 1153 86 1886 128 3350 195 2330 106 3500 167 4065 211 209 16 372 32 377
38 2 2 -24 7 -59 10 -404 43 -1676 45 -3223 6 -1733 -45 -3801 -126 -4725
-185 -1828 -118 -3452 -279 -4905 -486 -365 -52 -574 -87 -1010 -170 -422 -81
-659 -118 -969 -154 -42 -5 -48 -4 -42 10 3 9 13 53 23 98 14 72 15 86 2 111
-27 57 -50 56 -324 -5 -130 -28 -282 -35 -375 -15 -495 104 -802 785 -902
2001 -27 335 -11 1301 23 1393 8 20 15 22 73 22 82 0 201 -34 363 -106 179
-78 304 -123 368 -130 134 -16 213 67 231 240 16 158 -71 268 -261 329 -88 29
-189 46 -418 72 -122 13 -244 28 -271 31 l-49 7 6 146 c13 304 127 860 281
1366 68 222 78 247 213 520 126 254 153 329 160 441 10 147 -46 335 -126 426
-40 45 -105 78 -156 78 -193 0 -393 -369 -610 -1125 -152 -532 -250 -1023
-290 -1465 -21 -227 -32 -295 -56 -350 -54 -122 -150 -158 -529 -199 -102 -11
-206 -23 -232 -26 l-48 -6 0 185 c0 449 108 1303 246 1943 65 302 116 428 268
656 102 153 130 200 156 268 62 157 39 269 -55 269 -16 0 -53 -13 -80 -29z
m-1191 -3917 c39 -286 -151 -1062 -430 -1763 -125 -313 -286 -552 -517 -766
-419 -389 -823 -467 -1080 -210 -104 104 -150 230 -150 410 0 258 111 577 295
847 60 88 414 493 550 628 41 42 148 122 566 428 336 247 391 283 560 372 103
54 190 99 193 99 4 1 9 -20 13 -45z"/>
<path d="M27500 22764 c-132 -48 -206 -145 -264 -348 -34 -118 -52 -232 -91
-586 -20 -173 -64 -540 -100 -815 -36 -275 -87 -689 -115 -920 -28 -231 -66
-548 -85 -705 -52 -421 -65 -592 -65 -825 0 -375 48 -583 175 -761 165 -231
470 -277 790 -119 246 122 441 340 453 507 4 55 3 60 -14 55 -11 -3 -102 -30
-204 -60 -272 -81 -308 -90 -390 -91 -110 -1 -160 30 -207 131 -111 238 -65
980 147 2378 119 782 176 1197 216 1580 21 198 25 558 6 577 -20 20 -197 22
-252 2z"/>
<path d="M37102 22039 c-152 -18 -474 -151 -700 -288 -546 -333 -938 -977
-1074 -1766 -19 -111 -22 -167 -22 -385 -1 -229 2 -266 22 -359 31 -140 73
-244 131 -328 99 -140 212 -191 408 -181 76 4 113 12 166 33 247 100 475 367
703 821 88 177 164 355 303 712 60 153 116 293 126 312 l18 35 10 -25 c19 -47
11 -323 -16 -545 -35 -292 -39 -367 -27 -492 25 -244 146 -464 298 -542 340
-173 892 125 892 482 l0 60 -65 -5 c-53 -5 -77 -13 -134 -47 -87 -53 -117 -61
-219 -61 l-83 0 -49 103 c-94 196 -126 384 -117 676 7 231 26 360 128 861 126
628 139 723 105 804 -24 59 -71 68 -203 40 -162 -33 -255 -89 -305 -180 -15
-27 -48 -119 -73 -204 -127 -421 -412 -1125 -635 -1570 -112 -225 -162 -314
-263 -463 -87 -130 -147 -195 -201 -221 -43 -20 -150 -41 -171 -33 -18 8 -51
73 -82 162 -124 365 -29 916 256 1485 132 262 264 460 413 615 122 128 162
150 293 164 244 28 365 95 395 220 18 75 9 98 -40 105 -85 13 -118 14 -188 5z"/>
<path d="M34535 21874 c-10 -91 0 -211 43 -484 33 -220 36 -250 36 -475 1
-470 -72 -809 -255 -1176 -160 -323 -331 -525 -528 -622 -81 -40 -88 -42 -180
-42 l-96 0 -13 65 c-11 52 -12 88 -3 180 15 146 43 270 142 627 118 428 132
499 133 674 l1 145 -43 87 c-71 143 -186 240 -315 263 l-37 6 -30 -65 c-38
-84 -81 -230 -180 -617 -216 -841 -346 -1205 -527 -1476 -51 -78 -180 -214
-201 -214 -16 0 -70 78 -107 155 -134 276 -158 822 -58 1315 38 193 82 313
172 479 80 146 104 201 120 274 10 42 17 39 -106 57 -104 15 -250 12 -318 -5
-188 -48 -334 -199 -450 -462 -78 -178 -122 -354 -151 -598 -53 -454 51 -1038
229 -1288 142 -199 382 -289 772 -290 263 0 369 41 547 212 110 105 176 151
218 151 13 0 38 -24 74 -73 65 -88 138 -156 203 -188 67 -33 201 -33 286 0 85
34 224 130 314 219 216 212 503 683 586 962 108 363 133 879 67 1393 -57 447
-183 796 -310 862 l-28 15 -7 -66z"/>
<path d="M30080 21094 c-382 -82 -869 -409 -1195 -804 -343 -415 -555 -1031
-555 -1614 0 -673 319 -1027 749 -831 301 138 650 596 854 1120 30 77 91 237
137 355 45 118 101 251 124 295 l41 80 5 -75 c6 -96 -5 -299 -25 -465 -9 -71
-19 -218 -22 -325 -5 -161 -3 -211 11 -280 43 -210 153 -368 310 -445 162 -80
335 -73 525 21 197 97 351 309 351 483 l0 34 -57 -6 c-39 -4 -86 -20 -148 -51
-111 -55 -170 -70 -242 -63 -68 7 -89 25 -137 116 -77 147 -106 364 -87 647
14 212 45 429 117 819 31 165 64 350 75 410 28 160 59 407 59 472 l0 56 -87
-7 c-262 -21 -367 -67 -436 -194 -15 -27 -69 -174 -121 -328 -257 -760 -575
-1479 -814 -1838 -75 -113 -206 -256 -266 -291 -91 -54 -166 -38 -222 47 -55
81 -69 164 -69 398 1 225 11 304 70 536 46 178 90 296 194 509 173 357 356
626 554 816 l69 66 103 6 c170 10 315 70 398 167 62 73 59 138 -8 166 -43 18
-168 17 -255 -2z"/>
<path d="M25325 20454 c-362 -80 -849 -399 -1141 -746 -527 -629 -769 -1709
-502 -2247 108 -217 331 -347 536 -311 220 38 414 201 628 525 145 221 272
488 392 830 113 322 173 464 231 550 l21 30 0 -145 c0 -80 -9 -242 -20 -360
-47 -519 -34 -683 71 -896 142 -288 408 -358 744 -194 158 77 272 184 326 305
17 37 20 62 17 113 -7 113 -42 118 -219 31 -179 -88 -247 -91 -321 -12 -76 80
-118 227 -125 443 -9 254 19 499 127 1095 95 528 123 745 112 866 -4 36 -7 40
-46 50 -81 22 -243 -10 -346 -68 -107 -60 -142 -118 -195 -310 -86 -318 -259
-762 -512 -1313 -133 -289 -310 -637 -369 -726 -100 -152 -230 -246 -344 -248
l-54 -1 -38 65 c-102 174 -120 370 -68 724 74 494 227 814 678 1410 l158 210
144 0 c172 1 201 11 296 99 89 82 155 216 115 233 -35 15 -226 14 -296 -2z"/>
<path d="M24455 14760 c-195 -35 -304 -145 -305 -305 0 -98 14 -140 68 -198
61 -65 146 -105 325 -151 157 -40 211 -66 245 -116 19 -28 23 -44 19 -81 -5
-62 -36 -102 -102 -134 -49 -24 -63 -27 -144 -24 -122 5 -158 30 -221 153 -52
101 -81 124 -139 110 -53 -13 -85 -65 -76 -124 8 -54 44 -127 85 -174 127
-144 433 -181 638 -77 73 37 124 90 158 166 23 50 28 74 28 141 0 68 -4 90
-27 137 -52 106 -128 150 -377 217 -85 23 -171 50 -191 61 -108 55 -106 163 4
221 33 18 59 22 122 22 117 -1 146 -19 220 -142 48 -79 83 -96 141 -68 100 47
67 208 -61 296 -72 49 -147 71 -260 75 -55 2 -122 0 -150 -5z"/>
<path d="M26229 14755 c-15 -8 -32 -29 -38 -46 -7 -22 -11 -195 -11 -541 0
-544 1 -552 49 -578 38 -20 89 -12 123 19 l33 29 5 254 c5 245 6 254 29 295
38 65 91 98 162 98 74 0 108 -23 131 -91 14 -41 17 -89 18 -287 0 -261 7 -299
55 -317 61 -23 126 0 144 51 18 52 15 553 -4 616 -21 72 -66 128 -127 160 -47
25 -64 28 -143 28 -77 -1 -97 -5 -140 -27 -27 -15 -67 -43 -87 -63 l-36 -36
-4 196 -3 197 -33 29 c-36 33 -80 37 -123 14z"/>
<path d="M29260 14755 c-55 -30 -55 -25 -55 -586 0 -510 0 -518 21 -546 44
-58 140 -55 181 6 22 33 23 41 23 257 l0 224 254 0 255 0 3 -229 c3 -215 4
-231 24 -258 41 -55 137 -55 178 0 21 28 21 38 24 530 2 347 0 514 -8 540 -29
101 -181 101 -209 0 -6 -21 -11 -118 -11 -215 l0 -178 -255 0 -255 0 0 190 c0
151 -3 197 -15 220 -28 54 -101 75 -155 45z"/>
<path d="M31408 14741 l-33 -29 0 -537 0 -537 33 -29 c53 -48 127 -35 157 27
14 29 15 97 13 554 l-3 522 -33 29 c-44 39 -90 39 -134 0z"/>
<path d="M32821 14757 c-51 -30 -50 -25 -51 -582 0 -498 1 -521 20 -552 34
-57 121 -57 164 0 21 28 21 39 24 515 2 268 0 506 -3 530 -9 58 -40 92 -90 98
-24 3 -50 -1 -64 -9z"/>
<path d="M34783 14760 c-12 -5 -30 -21 -40 -37 -17 -25 -18 -64 -21 -513 -2
-267 0 -505 3 -529 14 -92 107 -133 172 -77 l28 24 6 250 c7 277 15 311 78
365 62 51 164 59 211 15 48 -45 53 -76 59 -361 l6 -269 28 -24 c66 -57 158
-15 172 79 4 26 5 160 3 299 -4 238 -5 256 -27 305 -79 178 -325 218 -478 79
-22 -20 -43 -36 -47 -36 -3 0 -6 81 -6 180 0 117 -4 188 -12 205 -21 46 -82
66 -135 45z"/>
<path d="M38003 14760 c-53 -22 -54 -26 -51 -601 l3 -531 28 -24 c61 -52 150
-14 162 70 l7 44 44 -45 c68 -68 121 -88 229 -88 111 0 173 25 239 95 83 89
116 186 116 346 0 247 -115 399 -317 420 -103 11 -198 -23 -280 -99 l-31 -29
-4 197 -3 197 -33 29 c-33 30 -67 36 -109 19z m440 -484 c48 -19 94 -78 113
-143 24 -83 16 -215 -17 -279 -86 -167 -312 -141 -365 42 -22 75 -16 201 13
264 49 109 157 158 256 116z"/>
<path d="M37568 14745 c-35 -20 -48 -44 -48 -92 0 -50 22 -80 68 -94 105 -31
185 97 107 171 -30 28 -92 35 -127 15z"/>
<path d="M33694 14736 c-68 -30 -64 -140 6 -165 19 -6 95 -11 176 -11 l143 0
3 -461 3 -461 33 -29 c51 -46 131 -37 169 20 16 24 18 65 21 478 l3 452 160 3
161 3 24 28 c32 37 32 87 0 124 l-24 28 -424 2 c-342 2 -429 0 -454 -11z"/>
<path d="M28157 14720 c-35 -28 -47 -76 -47 -192 l0 -98 -34 0 c-19 0 -45 -9
-60 -21 -56 -44 -18 -129 59 -129 l33 0 4 -272 c3 -250 5 -277 24 -318 37 -80
92 -109 206 -110 141 0 218 36 218 103 0 56 -26 71 -110 63 -43 -4 -79 -2 -90
4 -32 17 -40 76 -40 308 l0 222 49 0 c101 0 150 45 117 108 -17 34 -39 42
-113 42 l-53 0 0 115 c0 67 -5 125 -12 140 -24 53 -104 71 -151 35z"/>
<path d="M25490 14440 c-193 -46 -302 -198 -303 -422 -1 -261 141 -419 390
-435 139 -9 264 28 341 101 66 61 84 134 42 168 -39 32 -72 23 -141 -38 -79
-71 -127 -93 -202 -94 -101 0 -172 55 -203 156 -27 89 -46 82 239 86 169 3
262 9 284 17 45 18 67 69 59 137 -24 207 -180 336 -401 333 -38 -1 -86 -5
-105 -9z m222 -171 c36 -26 78 -110 78 -156 l0 -33 -195 0 c-218 0 -205 -6
-180 78 16 54 52 104 89 124 56 31 155 25 208 -13z"/>
<path d="M27390 14439 c-25 -5 -74 -23 -110 -41 -77 -40 -120 -93 -127 -161
-5 -39 -2 -49 20 -71 19 -19 36 -26 66 -26 37 0 42 4 81 58 57 82 99 104 200
104 112 1 154 -32 162 -126 3 -38 2 -39 -42 -52 -25 -8 -119 -30 -210 -49
-191 -41 -238 -64 -285 -139 -26 -42 -30 -59 -30 -115 1 -79 26 -134 82 -180
110 -92 325 -76 470 35 l32 24 33 -46 c56 -78 113 -94 168 -47 30 25 32 30 26
72 -3 25 -12 75 -21 111 -10 45 -15 121 -15 252 0 198 -9 250 -52 311 -24 34
-95 71 -166 86 -61 13 -216 13 -282 0z m296 -498 c-7 -84 -19 -117 -54 -155
-41 -43 -98 -66 -168 -66 -71 0 -107 21 -131 78 -18 43 -3 93 37 122 21 15
257 82 314 89 5 1 6 -29 2 -68z"/>
<path d="M30625 14435 c-110 -28 -194 -96 -215 -174 -19 -70 24 -126 91 -119
26 2 41 15 79 63 58 76 99 97 190 97 114 1 151 -26 166 -121 8 -50 17 -46
-225 -100 -199 -45 -242 -62 -290 -117 -42 -48 -51 -73 -51 -148 0 -86 42
-156 120 -200 51 -29 62 -31 150 -31 111 0 167 16 254 74 l59 40 28 -38 c55
-77 101 -96 158 -67 47 25 54 56 31 146 -16 64 -20 111 -20 252 0 303 -31 383
-171 434 -63 23 -275 28 -354 9z m313 -499 c-6 -95 -30 -142 -92 -180 -35 -22
-64 -31 -107 -34 -101 -7 -159 33 -159 112 0 74 41 102 200 136 58 13 114 26
125 31 36 14 38 10 33 -65z"/>
<path d="M32040 14439 c-25 -5 -74 -23 -110 -41 -77 -40 -120 -93 -127 -161
-5 -39 -2 -49 20 -71 19 -19 36 -26 66 -26 37 0 42 4 81 58 55 79 99 103 193
104 44 1 85 -5 102 -13 36 -18 63 -62 67 -113 4 -47 20 -40 -237 -97 -196 -43
-251 -67 -292 -128 -67 -100 -48 -234 44 -310 110 -92 325 -76 470 35 l32 24
32 -45 c58 -80 112 -96 168 -49 36 30 39 62 15 139 -12 37 -18 110 -23 285 -6
225 -8 237 -32 285 -47 93 -157 136 -340 134 -46 -1 -104 -5 -129 -10z m296
-498 c-7 -84 -19 -117 -54 -155 -41 -43 -98 -66 -169 -66 -51 0 -66 4 -92 25
-61 52 -62 132 -1 175 21 15 258 82 314 89 5 1 6 -29 2 -68z"/>
<path d="M35925 14436 c-146 -38 -225 -113 -225 -214 0 -49 35 -82 86 -82 35
0 38 2 96 79 47 62 90 82 181 83 93 0 129 -17 151 -72 9 -22 16 -53 16 -69 0
-23 -5 -30 -27 -34 -228 -50 -391 -90 -421 -106 -79 -41 -122 -113 -122 -203
1 -227 282 -312 525 -160 l64 41 21 -34 c30 -48 77 -85 108 -85 38 0 90 35 98
64 3 14 -2 49 -11 78 -13 40 -19 110 -25 288 -5 148 -12 249 -20 273 -22 61
-73 113 -138 138 -72 27 -278 36 -357 15z m305 -483 c0 -113 -33 -174 -115
-212 -54 -25 -142 -28 -185 -6 -35 18 -60 62 -60 106 0 41 52 94 106 107 63
16 238 59 247 61 4 0 7 -25 7 -56z"/>
<path d="M36604 14416 c-23 -23 -34 -43 -34 -62 0 -16 66 -193 145 -394 l145
-365 -34 -72 c-45 -93 -67 -108 -150 -99 -99 10 -133 -14 -124 -89 5 -47 44
-67 145 -72 162 -10 247 35 307 160 44 94 336 866 342 907 9 56 -2 87 -36 105
-39 20 -72 19 -103 -5 -27 -21 -40 -54 -158 -393 -38 -109 -72 -205 -77 -213
-6 -10 -39 75 -102 258 -101 296 -120 342 -149 358 -39 20 -81 12 -117 -24z"/>
<path d="M37570 14438 c-48 -26 -50 -38 -50 -421 0 -300 2 -363 15 -387 42
-80 160 -62 185 28 13 48 13 665 0 713 -6 20 -19 44 -29 53 -25 23 -89 30
-121 14z"/>
<path d="M28625 14101 c-39 -17 -56 -46 -53 -91 2 -33 9 -48 31 -64 25 -19 45
-21 175 -24 80 -2 161 -1 180 3 78 15 111 104 56 156 -25 23 -31 24 -197 26
-95 1 -181 -1 -192 -6z"/>
<path d="M33163 14090 c-65 -39 -50 -139 25 -159 49 -14 311 -14 351 0 68 24
80 122 18 159 -28 18 -51 20 -197 20 -146 0 -169 -2 -197 -20z"/>
</g>
</svg>
