<?xml version="1.0" standalone="no"?>
<!DOCTYPE svg PUBLIC "-//W3C//DTD SVG 20010904//EN"
 "http://www.w3.org/TR/2001/REC-SVG-20010904/DTD/svg10.dtd">
<svg version="1.0" xmlns="http://www.w3.org/2000/svg"
 width="2337.000000pt" height="1550.000000pt" viewBox="0 0 2337.000000 1550.000000"
 preserveAspectRatio="xMidYMid meet">

<g transform="translate(0.000000,1550.000000) scale(0.100000,-0.100000)"
fill="#000000" stroke="none">
<path d="M18665 13720 c-16 -4 -109 -8 -205 -9 -221 -1 -794 -19 -1055 -32
-110 -5 -276 -12 -370 -14 -93 -3 -287 -12 -430 -21 -143 -9 -359 -20 -480
-24 -121 -5 -265 -14 -320 -20 -55 -6 -161 -15 -235 -20 -74 -5 -200 -16 -280
-24 -80 -9 -181 -18 -225 -21 -44 -4 -136 -13 -205 -20 -69 -8 -186 -19 -260
-25 -74 -6 -184 -17 -245 -25 -60 -7 -153 -17 -205 -20 -52 -4 -126 -11 -165
-16 -38 -5 -124 -14 -190 -19 -66 -6 -174 -17 -240 -24 -66 -8 -232 -27 -370
-41 -455 -47 -792 -85 -1065 -121 -63 -9 -169 -22 -235 -29 -66 -8 -174 -21
-240 -29 -66 -9 -194 -25 -285 -36 -91 -12 -210 -27 -265 -35 -55 -8 -141 -19
-192 -25 -50 -6 -97 -12 -105 -15 -7 -2 -85 -14 -173 -26 -168 -22 -325 -44
-565 -77 -309 -44 -368 -53 -445 -67 -44 -8 -119 -19 -167 -25 -48 -6 -93 -13
-100 -15 -7 -3 -76 -14 -153 -24 -196 -28 -389 -57 -530 -80 -235 -39 -372
-62 -495 -80 -176 -28 -302 -49 -395 -66 -44 -8 -174 -31 -290 -51 -115 -19
-262 -44 -325 -55 -63 -11 -169 -29 -235 -40 -66 -11 -140 -24 -165 -29 -25
-6 -110 -22 -190 -36 -80 -13 -194 -34 -255 -45 -60 -11 -162 -29 -225 -40
-63 -11 -158 -29 -210 -39 -109 -22 -253 -48 -455 -85 -77 -14 -162 -30 -190
-36 -27 -6 -84 -17 -125 -24 -41 -7 -111 -20 -155 -29 -44 -9 -127 -25 -185
-36 -58 -11 -152 -29 -210 -40 -139 -26 -752 -147 -815 -160 -27 -6 -95 -20
-150 -30 -55 -11 -145 -29 -200 -40 -55 -11 -143 -29 -195 -39 -162 -33 -526
-108 -730 -151 -107 -23 -226 -47 -265 -54 -38 -7 -101 -20 -140 -29 -38 -8
-106 -23 -150 -32 -100 -21 -157 -33 -430 -91 -121 -25 -253 -52 -293 -59 -40
-6 -75 -15 -79 -18 -15 -15 -2 -71 47 -207 28 -80 60 -174 70 -210 10 -36 30
-108 45 -160 15 -52 33 -117 40 -145 7 -27 26 -102 43 -165 32 -123 67 -273
102 -435 11 -55 28 -130 36 -166 14 -63 21 -100 58 -314 9 -49 23 -128 31
-175 9 -47 20 -116 25 -155 5 -38 16 -117 25 -175 55 -363 103 -775 104 -893
1 -32 5 -77 11 -100 9 -40 27 -289 52 -742 15 -269 14 -1302 -1 -1525 -7 -96
-13 -184 -13 -195 -2 -92 -30 -461 -37 -505 -6 -30 -15 -120 -22 -200 -6 -80
-15 -161 -19 -180 -5 -19 -14 -82 -20 -140 -6 -58 -17 -132 -25 -165 -7 -33
-16 -89 -20 -125 -3 -36 -12 -90 -20 -120 -7 -30 -16 -77 -20 -105 -3 -27 -13
-74 -21 -102 -15 -53 -13 -73 8 -73 6 0 66 26 132 59 184 89 252 121 259 121
7 0 29 10 262 118 72 33 198 90 280 127 83 37 173 77 200 90 28 13 145 65 260
115 116 50 224 98 240 105 17 8 80 35 140 60 61 26 151 64 200 85 288 122 387
162 745 305 405 161 542 214 665 260 39 14 79 30 90 35 11 6 90 35 175 66 85
31 184 68 220 81 578 217 1923 659 2251 739 63 16 120 34 126 40 7 7 38 16 68
19 30 4 55 11 55 16 0 4 21 11 47 15 27 3 62 12 78 19 30 12 154 47 350 100
55 14 111 30 125 35 24 9 48 15 230 60 41 10 109 27 150 38 159 43 310 80 425
107 66 15 143 33 170 40 28 8 82 21 120 29 39 9 111 25 160 36 50 12 128 30
175 41 47 11 128 28 180 39 52 11 149 31 215 45 66 14 154 32 195 40 41 8 131
26 200 40 116 24 189 38 445 85 329 60 581 104 840 145 88 14 216 34 285 45
156 24 238 36 415 59 77 11 176 24 220 30 192 27 388 52 490 62 61 6 113 13
116 15 3 1 77 10 165 19 87 8 191 20 229 25 71 10 261 28 590 55 99 8 236 19
305 25 104 9 396 29 650 44 30 2 134 7 230 10 96 4 285 12 420 18 324 15 1520
15 1830 0 135 -7 299 -13 365 -15 492 -16 1586 -133 2055 -222 41 -7 100 -17
130 -20 30 -4 80 -13 110 -20 30 -7 78 -16 105 -20 28 -3 77 -12 110 -20 33
-8 94 -21 135 -29 41 -8 124 -26 185 -41 60 -14 113 -25 117 -25 16 0 19 49 5
82 -20 47 -77 281 -116 475 -74 363 -134 798 -167 1213 -9 107 -20 238 -24
290 -35 408 -35 1438 0 1900 51 675 95 1107 139 1381 48 293 67 405 93 544 16
88 34 189 39 225 6 36 24 122 40 192 41 172 47 164 -133 173 -202 10 -246 12
-398 24 -74 5 -288 15 -475 21 -187 6 -387 13 -445 16 -186 9 -1184 12 -1215
4z m-11983 -1972 c32 -26 98 -142 109 -194 10 -44 9 -71 -4 -151 -9 -54 -19
-120 -23 -146 -5 -34 -21 -70 -57 -125 -122 -183 -240 -469 -272 -657 -4 -22
-13 -62 -20 -90 -28 -104 -73 -414 -100 -680 -8 -82 -20 -163 -25 -179 -6 -16
-10 -40 -10 -52 0 -34 28 -32 216 16 87 22 198 45 246 51 73 10 91 15 100 33
6 11 22 91 34 176 25 166 53 336 79 465 30 153 56 280 70 340 8 33 28 119 45
190 17 72 37 153 45 180 7 28 26 93 40 145 49 174 146 454 171 493 67 103 165
142 260 102 37 -15 144 -119 144 -140 0 -7 7 -18 15 -25 8 -7 29 -56 46 -109
35 -110 34 -143 -6 -236 -42 -94 -43 -96 -69 -165 -57 -148 -140 -410 -192
-610 -8 -30 -21 -77 -29 -105 -20 -66 -58 -233 -85 -370 -12 -60 -30 -148 -41
-195 -10 -47 -19 -93 -19 -103 0 -24 25 -32 173 -57 136 -23 174 -34 300 -82
203 -80 266 -241 149 -387 -40 -49 -118 -91 -172 -91 -19 0 -75 17 -125 39
-75 32 -193 66 -326 95 -18 4 -34 0 -48 -12 -20 -16 -22 -32 -33 -271 -21
-458 16 -840 124 -1281 78 -318 149 -462 298 -604 148 -141 302 -191 575 -184
l150 3 3 -27 c4 -31 -11 -57 -90 -155 -89 -110 -211 -209 -327 -265 -25 -12
-50 -28 -56 -35 -26 -34 -279 -23 -383 17 -420 161 -692 707 -769 1545 -20
220 -29 779 -14 900 6 50 13 151 14 225 l2 135 -50 0 c-51 -1 -119 -14 -346
-67 -157 -36 -169 -46 -170 -131 -3 -171 -19 -309 -56 -467 -8 -36 -21 -92
-28 -125 -53 -237 -200 -583 -365 -855 -169 -280 -437 -583 -630 -710 -12 -8
-32 -22 -44 -31 -37 -28 -179 -103 -246 -130 -36 -15 -105 -37 -155 -49 -253
-63 -538 32 -671 225 -51 73 -59 124 -59 370 0 247 11 330 69 514 175 559 646
1051 1341 1403 99 50 231 112 293 138 123 51 149 68 156 102 8 47 47 397 56
513 5 66 14 156 20 200 22 164 39 283 55 373 22 131 25 129 -132 134 -159 7
-342 51 -563 138 -30 12 -77 30 -105 40 -50 18 -112 43 -150 60 -74 33 -261
112 -315 133 -36 14 -92 38 -125 53 -33 14 -82 34 -110 44 -27 9 -88 31 -135
48 -98 35 -187 62 -315 94 -77 19 -117 22 -275 23 -167 0 -192 -2 -260 -24
-168 -53 -301 -125 -395 -213 -47 -43 -73 -79 -105 -143 l-42 -85 4 -102 c4
-83 10 -114 30 -158 94 -205 353 -346 714 -389 186 -22 475 -10 604 26 79 21
233 74 245 83 6 4 21 11 35 15 32 10 215 100 255 126 84 54 125 55 156 5 10
-16 21 -50 25 -74 10 -69 -16 -120 -109 -215 -91 -92 -186 -159 -292 -204
-106 -45 -124 -51 -205 -69 -141 -31 -164 -34 -285 -46 -246 -23 -472 -11
-675 38 -257 61 -401 141 -556 307 -215 231 -286 636 -157 906 47 101 82 150
163 230 190 189 500 321 885 376 215 31 408 15 690 -58 145 -38 487 -148 550
-177 17 -8 141 -49 240 -80 92 -29 206 -59 245 -65 25 -4 70 -14 100 -23 72
-22 443 -24 505 -4 92 31 92 31 151 136 72 126 106 175 209 301 89 108 167
185 188 185 7 0 20 -6 29 -12z m4580 -324 c54 -45 58 -65 34 -187 -8 -40 -26
-135 -41 -212 -14 -77 -34 -185 -44 -240 -11 -55 -31 -170 -46 -255 -14 -85
-35 -200 -45 -255 -10 -55 -28 -156 -40 -225 -11 -69 -30 -172 -40 -230 -11
-58 -22 -127 -25 -155 -4 -27 -13 -84 -20 -125 -8 -41 -17 -100 -20 -130 -3
-30 -12 -86 -20 -125 -13 -64 -48 -327 -74 -551 -46 -390 48 -612 248 -590 31
3 78 9 104 12 59 7 97 -7 137 -53 45 -51 42 -106 -9 -170 -56 -71 -134 -134
-226 -183 -115 -62 -182 -80 -295 -80 -140 0 -235 40 -307 131 -29 37 -44 64
-86 159 -8 19 -23 82 -33 140 -24 145 -11 381 50 895 9 71 22 173 30 225 8 52
24 163 36 245 12 83 30 204 40 270 11 66 24 149 29 185 19 119 41 244 51 291
6 25 17 86 25 135 45 279 87 498 145 749 10 44 22 96 25 115 33 176 84 228
235 239 95 7 154 -1 182 -25z m6999 -494 c55 -29 74 -70 59 -126 -26 -92 -90
-147 -275 -238 -131 -65 -157 -81 -266 -169 -329 -265 -493 -683 -438 -1117
27 -221 44 -273 90 -278 21 -2 38 9 86 62 49 54 193 270 193 290 0 3 27 53 59
110 32 57 62 115 66 128 5 12 43 96 85 184 43 89 81 172 85 184 4 12 24 56 44
98 21 42 50 104 66 137 95 205 258 526 283 561 48 65 106 88 228 89 91 0 104
-2 137 -25 71 -48 70 -58 -38 -475 -37 -143 -76 -302 -86 -354 -11 -51 -21
-97 -24 -101 -11 -19 -40 -275 -40 -360 1 -158 38 -285 101 -342 30 -26 106
-58 140 -58 17 0 51 7 74 15 23 8 55 15 71 15 53 0 125 -59 143 -118 15 -46
-4 -83 -89 -167 -70 -69 -100 -90 -196 -139 -83 -42 -133 -60 -184 -68 -269
-41 -454 101 -509 392 -20 106 -29 276 -18 333 5 27 7 57 5 68 -8 31 -39 23
-53 -13 -20 -51 -171 -351 -184 -368 -7 -8 -16 -23 -19 -32 -12 -33 -153 -242
-208 -308 -137 -165 -253 -237 -399 -247 -93 -6 -161 15 -245 77 -84 62 -138
152 -187 310 -21 70 -23 91 -23 335 0 217 3 270 18 320 9 33 24 89 31 125 21
95 41 161 59 197 10 18 17 38 17 44 0 20 137 286 173 335 284 395 592 624 939
699 123 27 168 26 229 -5z m-2001 -97 c7 -21 18 -48 26 -60 22 -35 61 -145 69
-193 6 -40 22 -97 95 -337 31 -103 46 -387 31 -582 -7 -89 -18 -185 -26 -214
-7 -29 -16 -71 -20 -94 -7 -44 -77 -249 -117 -343 -68 -162 -211 -372 -352
-518 -140 -145 -293 -208 -421 -173 -62 16 -190 141 -217 211 -2 4 -12 10 -24
14 -17 5 -26 -2 -48 -34 -32 -49 -113 -132 -178 -184 -85 -68 -256 -100 -403
-76 -38 6 -104 15 -145 20 -41 5 -84 11 -95 15 -130 45 -232 134 -292 257 -45
92 -68 159 -109 323 -26 102 -28 124 -28 310 1 174 4 218 27 340 57 302 135
455 333 651 78 78 113 94 149 70 15 -10 43 -15 77 -14 68 2 147 -10 176 -28
33 -21 27 -53 -19 -109 -48 -58 -127 -217 -162 -325 -57 -174 -71 -285 -71
-550 -1 -231 1 -252 27 -370 28 -129 50 -197 93 -287 40 -85 65 -74 175 77 40
54 128 214 156 283 114 281 133 342 144 457 12 133 59 303 144 520 19 47 48
143 65 214 32 131 49 169 77 180 22 9 79 -22 109 -58 14 -17 62 -68 106 -113
l81 -82 -6 -103 c-3 -71 -16 -147 -41 -245 -20 -78 -41 -175 -46 -215 -16
-125 -96 -417 -152 -555 -18 -43 -19 -57 -10 -77 16 -36 86 -77 130 -77 118 0
272 121 389 305 35 55 133 248 133 262 0 5 6 21 14 35 7 14 34 86 59 160 56
168 88 325 108 527 5 59 12 127 16 151 3 25 0 74 -6 110 -6 37 -18 107 -26
156 -8 50 -24 128 -35 175 -22 96 -26 200 -8 218 21 21 36 13 48 -25z m-3286
-574 c105 -39 123 -111 51 -209 -31 -42 -94 -100 -109 -100 -22 0 -200 -96
-291 -156 -192 -127 -328 -283 -432 -494 -68 -138 -94 -238 -122 -465 -8 -69
12 -287 40 -423 31 -153 125 -100 277 154 55 91 221 412 264 510 9 22 43 93
74 159 54 115 72 154 160 345 67 145 222 448 251 493 16 23 49 53 73 67 40 22
56 25 156 25 106 0 112 -1 147 -28 63 -48 65 -31 -63 -532 -89 -349 -127 -546
-136 -706 -12 -183 37 -338 126 -404 57 -42 100 -49 191 -29 76 16 81 16 120
-1 49 -23 88 -70 96 -118 14 -91 -173 -254 -386 -337 -43 -17 -76 -21 -172
-21 -104 0 -125 3 -171 24 -85 39 -152 107 -194 195 -61 128 -77 211 -78 412
-1 96 -6 181 -10 189 -9 13 -17 -3 -101 -184 -141 -307 -364 -625 -510 -725
-94 -65 -151 -84 -250 -84 -118 -1 -191 30 -269 115 -130 140 -175 296 -176
599 0 293 56 542 186 820 37 78 47 95 134 225 247 368 624 638 956 685 43 5
80 12 82 15 9 9 31 5 86 -16z m-3431 -456 c51 -30 68 -69 55 -126 -8 -38 -22
-60 -66 -106 -48 -48 -81 -70 -203 -129 -194 -94 -330 -199 -452 -351 -172
-212 -268 -489 -268 -771 0 -143 30 -359 56 -411 30 -56 71 -45 142 40 71 86
203 309 287 486 19 39 63 132 100 207 36 76 66 140 66 143 0 2 26 60 59 127
32 68 71 150 86 183 15 33 77 161 138 284 155 316 183 341 378 341 94 0 143
-25 169 -88 9 -22 -4 -94 -46 -247 -53 -195 -137 -550 -170 -715 -28 -142 -26
-402 4 -484 28 -75 61 -119 115 -150 58 -34 112 -41 167 -22 96 33 169 7 209
-78 31 -63 21 -88 -68 -177 -192 -192 -430 -268 -625 -199 -56 19 -82 36 -132
85 -118 115 -156 243 -160 525 -2 212 -2 200 -12 200 -8 0 -13 -9 -127 -239
-90 -181 -193 -355 -273 -461 -159 -209 -296 -300 -457 -303 -65 -2 -91 3
-135 22 -145 62 -259 216 -289 389 -5 31 -15 89 -21 127 -25 147 3 458 60 674
38 144 144 381 228 511 191 294 505 564 782 669 59 23 187 58 235 65 55 8 135
-2 168 -21z"/>
<path d="M5680 8838 c-146 -55 -190 -73 -254 -105 -88 -43 -227 -126 -287
-173 -26 -19 -59 -44 -74 -55 -95 -68 -225 -195 -305 -295 -259 -326 -397
-681 -377 -968 12 -170 94 -268 241 -292 205 -33 379 56 566 289 19 24 40 48
45 55 10 11 83 121 120 181 43 69 195 364 195 378 0 5 6 23 14 40 56 123 129
350 161 502 32 148 35 167 46 274 16 139 15 171 -2 182 -19 12 -25 11 -89 -13z"/>
<path d="M22351 13569 c-7 -19 -19 -50 -27 -69 -7 -19 -18 -57 -24 -85 -6 -27
-24 -93 -39 -145 -16 -52 -36 -126 -46 -165 -70 -288 -90 -371 -114 -483 -12
-52 -23 -97 -25 -101 -3 -4 -10 -39 -16 -77 -5 -38 -16 -98 -24 -134 -8 -36
-24 -114 -35 -175 -11 -60 -30 -157 -41 -215 -22 -115 -36 -205 -79 -505 -60
-413 -98 -737 -127 -1075 -9 -102 -18 -201 -20 -220 -1 -19 -5 -102 -8 -185
-3 -82 -8 -188 -11 -235 -7 -110 -8 -1118 -1 -1128 3 -5 6 -71 6 -148 1 -76 8
-202 15 -279 8 -77 19 -196 25 -265 22 -264 74 -607 142 -945 48 -242 58 -284
104 -452 26 -94 25 -126 -2 -137 -8 -3 -54 6 -102 20 -48 14 -123 33 -167 44
-44 10 -118 28 -165 40 -47 12 -121 30 -165 39 -44 10 -98 23 -120 29 -22 6
-85 20 -140 32 -55 11 -140 29 -190 40 -108 23 -236 47 -325 61 -199 31 -322
48 -381 54 -64 6 -67 5 -88 -21 -11 -15 -21 -31 -21 -36 0 -5 -11 -34 -25 -64
-14 -30 -37 -80 -51 -111 -189 -415 -467 -902 -748 -1309 -282 -410 -763 -961
-1100 -1260 -49 -43 -101 -90 -116 -104 -165 -153 -512 -429 -732 -583 -186
-130 -331 -228 -376 -254 -26 -15 -67 -41 -92 -58 -42 -29 -130 -83 -330 -202
-47 -28 -137 -79 -200 -113 -63 -35 -140 -76 -170 -93 -120 -67 -518 -260
-655 -317 -11 -5 -58 -25 -105 -46 -123 -53 -289 -120 -410 -164 -58 -21 -139
-52 -180 -68 -113 -44 -538 -182 -685 -222 -44 -12 -100 -28 -125 -36 -48 -14
-181 -48 -270 -69 -30 -7 -82 -20 -115 -28 -298 -76 -699 -146 -1115 -196
-427 -52 -780 -71 -1340 -71 -629 0 -1175 33 -1635 100 -38 6 -117 17 -175 25
-98 13 -275 43 -500 85 -215 41 -354 73 -620 144 -255 68 -271 73 -505 151
-121 40 -236 77 -255 83 -87 26 -512 193 -675 264 -49 22 -106 46 -125 55
-143 61 -499 235 -635 310 -93 51 -118 66 -222 127 -34 20 -63 36 -66 36 -2 0
-39 22 -83 48 -43 27 -101 61 -128 78 -98 59 -295 189 -454 299 -118 82 -407
305 -537 415 -71 61 -161 132 -199 158 -100 68 -107 67 -334 -39 -46 -22 -86
-39 -89 -39 -3 0 -31 -12 -62 -26 -31 -14 -72 -33 -91 -41 -19 -9 -62 -29 -96
-44 -33 -16 -63 -29 -67 -29 -3 0 -55 -23 -114 -51 -59 -28 -164 -76 -233
-106 -69 -30 -154 -68 -190 -85 -36 -17 -94 -44 -130 -61 -36 -16 -117 -54
-180 -84 -108 -52 -173 -82 -280 -131 -25 -11 -160 -74 -300 -140 -140 -65
-284 -132 -320 -147 -102 -45 -105 -49 -119 -173 -7 -59 -19 -134 -26 -167
-12 -52 -34 -162 -52 -258 -7 -37 -11 -39 237 81 91 44 181 87 200 95 19 8
150 70 290 137 140 67 275 131 300 142 25 12 100 47 167 80 67 32 124 58 127
58 3 0 47 20 98 44 119 56 168 78 358 164 85 38 180 81 210 95 30 13 78 35
105 47 28 12 75 34 105 47 30 14 75 34 100 45 25 10 59 25 75 33 52 23 116 51
240 105 124 54 162 71 254 114 30 15 64 26 76 26 18 0 61 -23 75 -40 9 -11
124 -113 185 -165 33 -27 80 -68 105 -91 91 -83 403 -330 555 -441 140 -102
285 -202 365 -253 36 -23 110 -70 165 -105 55 -35 133 -84 174 -107 40 -24 90
-53 110 -65 20 -12 50 -29 66 -38 17 -8 66 -35 110 -60 84 -47 599 -305 609
-305 7 0 131 -55 160 -72 10 -5 35 -16 55 -23 20 -8 97 -39 171 -69 74 -31
140 -56 145 -56 6 0 22 -6 37 -14 14 -8 73 -30 130 -50 56 -20 135 -48 173
-62 69 -25 152 -52 250 -80 28 -7 59 -18 70 -23 11 -6 47 -17 80 -26 33 -8
103 -27 155 -41 52 -14 120 -32 150 -39 86 -22 171 -44 225 -59 28 -8 70 -17
95 -21 25 -4 70 -13 100 -20 182 -46 603 -116 985 -165 419 -53 593 -60 1402
-60 670 0 785 2 988 20 301 26 756 88 920 125 33 7 80 16 105 20 25 4 59 11
76 16 17 5 64 16 105 23 41 8 103 21 139 30 36 9 106 25 155 37 50 11 119 28
155 39 36 10 101 28 145 39 113 30 202 57 340 101 66 21 136 41 155 45 19 4
40 11 45 15 6 4 57 23 115 43 266 91 557 206 803 316 157 71 562 271 667 330
30 17 62 34 70 37 13 6 124 70 172 99 9 5 49 29 90 53 40 24 89 53 108 64 136
83 441 286 550 366 47 34 93 68 103 75 90 63 367 282 487 385 126 108 236 210
399 373 204 203 260 263 452 489 280 328 585 770 786 1140 154 283 216 410
322 655 29 66 58 134 66 150 8 17 28 66 44 110 17 44 44 116 61 160 17 44 38
105 46 135 22 82 41 94 141 86 170 -14 608 -79 813 -121 69 -14 168 -34 220
-45 222 -45 424 -91 631 -143 374 -95 377 -95 346 -7 -21 59 -54 180 -72 265
-7 33 -20 92 -29 130 -38 160 -62 286 -87 445 -6 36 -17 99 -24 140 -8 41 -19
127 -25 190 -6 63 -15 131 -20 150 -4 19 -11 71 -14 115 -3 44 -8 114 -11 155
-3 41 -10 113 -15 160 -31 286 -37 1298 -9 1675 5 77 11 160 13 185 2 25 9
131 15 235 6 105 16 204 21 220 4 17 14 98 20 180 6 83 18 188 26 234 7 46 14
102 14 125 0 22 7 84 16 136 8 52 21 142 29 200 24 176 61 403 91 560 8 41 21
118 29 170 8 53 18 107 23 120 5 14 13 50 17 80 3 30 13 80 20 110 14 53 27
116 65 308 11 51 22 97 25 102 3 5 10 35 16 67 6 32 17 81 25 108 15 56 40
152 59 235 7 30 27 107 45 170 18 63 38 138 46 165 34 128 55 195 78 257 l25
67 -37 10 c-90 23 -182 42 -242 51 -36 5 -81 12 -101 16 -34 6 -36 4 -48 -27z"/>
<path d="M16725 6873 c-656 -7 -1677 -65 -2090 -117 -60 -8 -148 -17 -195 -21
-47 -4 -107 -11 -133 -16 -27 -5 -96 -13 -155 -19 -59 -5 -152 -16 -207 -24
-55 -9 -181 -27 -280 -41 -203 -29 -387 -59 -490 -80 -38 -8 -101 -19 -140
-24 -63 -9 -144 -24 -445 -80 -103 -20 -423 -85 -615 -126 -66 -14 -154 -32
-195 -41 -41 -8 -88 -18 -105 -23 -16 -5 -84 -21 -150 -36 -205 -46 -269 -61
-630 -150 -363 -89 -376 -92 -615 -157 -80 -22 -170 -45 -200 -52 -30 -7 -71
-18 -90 -24 -19 -7 -141 -41 -270 -77 -341 -96 -396 -111 -620 -179 -234 -70
-457 -138 -510 -156 -30 -10 -95 -30 -145 -46 -49 -15 -189 -60 -310 -99 -121
-40 -269 -89 -330 -108 -209 -68 -590 -197 -610 -207 -18 -9 -136 -49 -280
-95 -27 -9 -61 -21 -75 -27 -14 -6 -97 -35 -185 -65 -88 -30 -173 -60 -190
-67 -16 -8 -41 -17 -55 -21 -14 -3 -34 -10 -45 -15 -32 -14 -144 -56 -230 -85
-94 -32 -202 -72 -230 -85 -11 -5 -38 -16 -60 -23 -63 -22 -328 -117 -352
-127 -35 -15 -27 -42 25 -87 200 -172 335 -273 602 -450 179 -120 237 -156
345 -218 55 -32 132 -77 170 -100 39 -23 169 -91 290 -151 186 -93 287 -140
540 -250 70 -30 327 -129 415 -160 52 -18 140 -48 195 -67 236 -82 688 -208
940 -263 589 -128 1119 -201 1695 -234 234 -13 836 -13 1085 0 669 35 1375
142 1980 298 453 118 850 249 1260 416 104 43 130 54 364 162 387 179 892 469
1233 707 143 100 170 120 278 201 349 264 564 449 851 736 328 326 433 448
700 805 221 296 494 761 603 1027 25 63 36 61 -524 97 -510 33 -1237 51 -1815
44z"/>
</g>
</svg>
